<?xml version="1.0" encoding="UTF-8" standalone="no"?>
<!DOCTYPE svg PUBLIC "-//W3C//DTD SVG 1.1//EN" "http://www.w3.org/Graphics/SVG/1.1/DTD/svg11.dtd">
<svg width="100%" height="100%" viewBox="0 0 150 46" version="1.1" xmlns="http://www.w3.org/2000/svg" xmlns:xlink="http://www.w3.org/1999/xlink" xml:space="preserve" xmlns:serif="http://www.serif.com/" style="fill-rule:evenodd;clip-rule:evenodd;stroke-linejoin:round;stroke-miterlimit:2;">
    <g id="instadog" transform="matrix(0.208333,0,0,0.0632803,0,0)">
        <rect x="0" y="0" width="720" height="720" style="fill:none;"/>
        <clipPath id="_clip1">
            <rect x="0" y="0" width="720" height="720"/>
        </clipPath>
        <g clip-path="url(#_clip1)">
            <g transform="matrix(1.4557,0,0,4.30494,-87.9148,-942.949)">
                <g transform="matrix(143.722,0,0,160,43.2,327.242)">
                    <path d="M0.433,-0.117L0.515,-0.117C0.56,-0.117 0.582,-0.101 0.582,-0.07C0.582,-0.048 0.574,-0.031 0.558,-0.018C0.543,-0.006 0.52,-0 0.492,-0L0.403,-0C0.367,-0 0.34,-0.007 0.321,-0.021C0.303,-0.035 0.293,-0.055 0.293,-0.081C0.293,-0.1 0.3,-0.125 0.313,-0.159L0.412,-0.4C0.431,-0.449 0.441,-0.482 0.441,-0.5C0.441,-0.515 0.435,-0.528 0.421,-0.54C0.408,-0.551 0.393,-0.557 0.375,-0.557C0.343,-0.557 0.313,-0.543 0.287,-0.515C0.261,-0.487 0.248,-0.455 0.248,-0.42C0.248,-0.4 0.252,-0.385 0.261,-0.374C0.27,-0.362 0.286,-0.352 0.31,-0.343C0.331,-0.334 0.342,-0.32 0.342,-0.299C0.342,-0.28 0.335,-0.265 0.321,-0.253C0.306,-0.24 0.289,-0.234 0.268,-0.234C0.227,-0.234 0.192,-0.252 0.163,-0.286C0.134,-0.321 0.12,-0.363 0.12,-0.411C0.12,-0.482 0.146,-0.544 0.2,-0.597C0.253,-0.65 0.315,-0.676 0.386,-0.676C0.44,-0.676 0.484,-0.661 0.52,-0.629C0.555,-0.598 0.573,-0.559 0.573,-0.513C0.573,-0.479 0.565,-0.442 0.548,-0.4L0.433,-0.117Z" style="fill-rule:nonzero;"/>
                </g>
                <g transform="matrix(143.722,0,0,160,127.693,327.242)">
                    <path d="M0.408,-0.106L0.466,-0.106C0.508,-0.106 0.528,-0.092 0.528,-0.063C0.528,-0.043 0.521,-0.028 0.506,-0.017C0.492,-0.006 0.472,-0 0.446,-0L0.344,-0C0.324,-0 0.307,-0.006 0.294,-0.018C0.28,-0.03 0.273,-0.045 0.273,-0.063C0.273,-0.075 0.278,-0.091 0.287,-0.113L0.33,-0.22C0.335,-0.231 0.337,-0.24 0.337,-0.247C0.338,-0.254 0.335,-0.261 0.328,-0.267C0.321,-0.272 0.313,-0.275 0.302,-0.275C0.269,-0.275 0.242,-0.25 0.221,-0.199L0.164,-0.058C0.146,-0.015 0.121,0.007 0.086,0.007C0.072,0.007 0.061,0.003 0.051,-0.006C0.041,-0.014 0.036,-0.025 0.036,-0.037C0.036,-0.046 0.039,-0.057 0.044,-0.07L0.049,-0.083L0.148,-0.326C0.161,-0.358 0.182,-0.374 0.213,-0.374C0.238,-0.374 0.256,-0.362 0.267,-0.34C0.301,-0.367 0.335,-0.38 0.366,-0.38C0.397,-0.38 0.422,-0.372 0.442,-0.354C0.462,-0.336 0.472,-0.314 0.472,-0.287C0.472,-0.272 0.468,-0.256 0.461,-0.238L0.408,-0.106Z" style="fill-rule:nonzero;"/>
                </g>
                <g transform="matrix(143.722,0,0,160,199.624,327.242)">
                    <path d="M0.208,-0.24L0.199,-0.218C0.185,-0.186 0.165,-0.169 0.138,-0.169C0.125,-0.169 0.113,-0.174 0.102,-0.183C0.092,-0.193 0.086,-0.203 0.086,-0.215C0.086,-0.227 0.091,-0.242 0.101,-0.261L0.166,-0.393C0.181,-0.424 0.201,-0.44 0.225,-0.44C0.238,-0.44 0.249,-0.436 0.258,-0.427C0.267,-0.419 0.271,-0.409 0.271,-0.398C0.271,-0.395 0.271,-0.389 0.269,-0.379C0.267,-0.372 0.267,-0.365 0.267,-0.36C0.267,-0.339 0.274,-0.318 0.29,-0.297L0.317,-0.258C0.346,-0.219 0.36,-0.181 0.36,-0.144C0.36,-0.103 0.345,-0.069 0.314,-0.041C0.283,-0.014 0.245,-0 0.2,-0L0.098,-0C0.056,-0 0.036,-0.014 0.036,-0.043C0.036,-0.063 0.043,-0.078 0.058,-0.09C0.072,-0.101 0.092,-0.106 0.118,-0.106L0.175,-0.106C0.22,-0.106 0.243,-0.123 0.243,-0.156C0.243,-0.168 0.238,-0.182 0.23,-0.198L0.208,-0.24Z" style="fill-rule:nonzero;"/>
                </g>
                <g transform="matrix(143.722,0,0,160,249.8,327.242)">
                    <path d="M0.29,-0.374L0.305,-0.374C0.347,-0.374 0.367,-0.359 0.367,-0.33C0.367,-0.31 0.36,-0.295 0.345,-0.284C0.331,-0.273 0.31,-0.267 0.285,-0.267L0.249,-0.267L0.184,-0.106L0.238,-0.106C0.28,-0.106 0.3,-0.092 0.3,-0.063C0.3,-0.043 0.293,-0.028 0.279,-0.017C0.264,-0.006 0.244,-0 0.218,-0L0.13,-0C0.106,-0 0.086,-0.006 0.072,-0.017C0.057,-0.028 0.05,-0.044 0.05,-0.063C0.05,-0.076 0.053,-0.089 0.059,-0.104L0.068,-0.125L0.125,-0.267L0.118,-0.267C0.082,-0.267 0.063,-0.281 0.063,-0.31C0.063,-0.33 0.071,-0.345 0.085,-0.357C0.1,-0.368 0.12,-0.374 0.146,-0.374L0.168,-0.374L0.194,-0.438L0.2,-0.451C0.215,-0.487 0.239,-0.505 0.272,-0.505C0.285,-0.505 0.297,-0.5 0.306,-0.491C0.316,-0.483 0.321,-0.472 0.321,-0.459C0.321,-0.447 0.317,-0.431 0.308,-0.412L0.29,-0.374Z" style="fill-rule:nonzero;"/>
                </g>
                <g transform="matrix(143.722,0,0,160,293.029,327.242)">
                    <path d="M0.379,-0.106L0.433,-0.106C0.474,-0.106 0.495,-0.092 0.495,-0.063C0.495,-0.044 0.487,-0.028 0.473,-0.017C0.458,-0.006 0.438,-0 0.412,-0L0.35,-0C0.322,-0 0.303,-0.011 0.292,-0.033C0.268,-0.011 0.244,-0 0.222,-0L0.166,-0C0.13,-0 0.101,-0.013 0.079,-0.038C0.057,-0.064 0.046,-0.097 0.046,-0.139C0.046,-0.201 0.068,-0.257 0.111,-0.306C0.154,-0.356 0.203,-0.38 0.257,-0.38C0.299,-0.38 0.329,-0.366 0.349,-0.337C0.365,-0.361 0.386,-0.374 0.413,-0.374C0.427,-0.374 0.439,-0.369 0.448,-0.36C0.458,-0.351 0.463,-0.34 0.463,-0.326C0.463,-0.317 0.46,-0.306 0.455,-0.293L0.45,-0.28L0.379,-0.106ZM0.202,-0.104L0.214,-0.104C0.241,-0.104 0.259,-0.115 0.268,-0.137L0.302,-0.221C0.306,-0.232 0.309,-0.242 0.309,-0.249C0.309,-0.258 0.304,-0.265 0.296,-0.272C0.287,-0.278 0.277,-0.282 0.265,-0.282C0.241,-0.282 0.218,-0.268 0.195,-0.24C0.173,-0.213 0.162,-0.184 0.162,-0.154C0.162,-0.121 0.175,-0.104 0.202,-0.104Z" style="fill-rule:nonzero;"/>
                </g>
                <g transform="matrix(143.722,0,0,160,360.189,327.242)">
                    <path d="M0.381,-0.106L0.437,-0.106C0.478,-0.106 0.499,-0.092 0.499,-0.063C0.499,-0.043 0.492,-0.028 0.477,-0.017C0.462,-0.006 0.442,-0 0.417,-0L0.351,-0C0.325,-0 0.307,-0.01 0.295,-0.031C0.274,-0.01 0.252,-0 0.228,-0L0.166,-0C0.13,-0 0.101,-0.012 0.079,-0.037C0.058,-0.062 0.047,-0.095 0.047,-0.136C0.047,-0.199 0.068,-0.255 0.111,-0.305C0.154,-0.355 0.202,-0.38 0.255,-0.38C0.295,-0.38 0.326,-0.366 0.35,-0.338L0.458,-0.605C0.477,-0.651 0.503,-0.673 0.536,-0.673C0.55,-0.673 0.562,-0.669 0.572,-0.66C0.582,-0.651 0.586,-0.64 0.586,-0.627C0.586,-0.617 0.584,-0.605 0.579,-0.593L0.573,-0.58L0.381,-0.106ZM0.203,-0.104L0.221,-0.104C0.244,-0.104 0.258,-0.113 0.266,-0.131L0.302,-0.221C0.307,-0.232 0.309,-0.241 0.309,-0.247C0.309,-0.256 0.305,-0.265 0.297,-0.271C0.288,-0.278 0.278,-0.282 0.266,-0.282C0.24,-0.282 0.217,-0.268 0.195,-0.239C0.173,-0.211 0.162,-0.18 0.162,-0.147C0.162,-0.118 0.175,-0.104 0.203,-0.104Z" style="fill-rule:nonzero;"/>
                </g>
                <g transform="matrix(143.722,0,0,160,428.12,327.242)">
                    <path d="M0.272,-0.38C0.319,-0.38 0.358,-0.365 0.388,-0.335C0.419,-0.306 0.434,-0.267 0.434,-0.221C0.434,-0.186 0.426,-0.152 0.41,-0.117C0.394,-0.083 0.374,-0.056 0.348,-0.035C0.331,-0.022 0.314,-0.013 0.296,-0.008C0.278,-0.003 0.252,-0 0.22,-0C0.167,-0 0.131,-0.006 0.112,-0.019C0.069,-0.049 0.047,-0.093 0.047,-0.152C0.047,-0.214 0.069,-0.267 0.114,-0.313C0.158,-0.358 0.211,-0.38 0.272,-0.38ZM0.26,-0.276C0.236,-0.276 0.214,-0.264 0.194,-0.241C0.174,-0.217 0.165,-0.191 0.165,-0.162C0.165,-0.124 0.186,-0.105 0.228,-0.105C0.253,-0.105 0.272,-0.113 0.285,-0.128C0.307,-0.153 0.318,-0.182 0.318,-0.214C0.318,-0.233 0.313,-0.248 0.302,-0.259C0.292,-0.271 0.278,-0.276 0.26,-0.276Z" style="fill-rule:nonzero;"/>
                </g>
                <g transform="matrix(143.722,0,0,160,487.63,327.242)">
                    <path d="M0.333,0.014L0.392,0.014C0.433,0.014 0.454,0.028 0.454,0.057C0.454,0.076 0.447,0.092 0.432,0.103C0.417,0.115 0.397,0.12 0.372,0.12L0.291,0.12L0.27,0.17C0.22,0.292 0.147,0.354 0.052,0.354C0.002,0.354 -0.04,0.338 -0.073,0.307C-0.107,0.276 -0.124,0.237 -0.124,0.191C-0.124,0.161 -0.115,0.132 -0.099,0.106C-0.083,0.079 -0.061,0.058 -0.033,0.042C0.001,0.023 0.048,0.014 0.106,0.014L0.211,0.014L0.226,-0.024C0.206,-0.012 0.186,-0.006 0.168,-0.006C0.133,-0.006 0.105,-0.018 0.083,-0.042C0.062,-0.066 0.051,-0.097 0.051,-0.136C0.051,-0.199 0.073,-0.255 0.117,-0.305C0.161,-0.355 0.21,-0.38 0.265,-0.38C0.305,-0.38 0.335,-0.367 0.354,-0.341C0.37,-0.367 0.391,-0.38 0.419,-0.38C0.433,-0.38 0.445,-0.376 0.454,-0.367C0.464,-0.358 0.469,-0.347 0.469,-0.334C0.469,-0.324 0.465,-0.309 0.456,-0.288L0.333,0.014ZM0.27,-0.133L0.31,-0.229C0.313,-0.238 0.314,-0.244 0.314,-0.25C0.314,-0.259 0.31,-0.267 0.302,-0.274C0.293,-0.28 0.282,-0.284 0.269,-0.284C0.246,-0.284 0.223,-0.27 0.202,-0.243C0.181,-0.217 0.17,-0.188 0.17,-0.158C0.17,-0.124 0.186,-0.107 0.218,-0.107C0.245,-0.107 0.263,-0.116 0.27,-0.133ZM0.167,0.12L0.083,0.12C0.054,0.12 0.031,0.126 0.015,0.139C-0.001,0.151 -0.009,0.168 -0.009,0.191C-0.009,0.206 -0.004,0.219 0.007,0.23C0.018,0.241 0.032,0.246 0.048,0.246C0.072,0.246 0.092,0.237 0.11,0.218C0.127,0.2 0.147,0.167 0.167,0.12Z" style="fill-rule:nonzero;"/>
                </g>
            </g>
        </g>
    </g>
</svg>
